<svg width="24" height="24" viewBox="0 0 24 24" fill="none" xmlns="http://www.w3.org/2000/svg">
<path d="M16.2 2H7.8C6.3 2 4.8 2.6 3.7 3.7C2.6 4.8 2 6.3 2 7.8V16.2C2 19.4 4.6 22 7.8 22H16.2C17.7 22 19.2 21.4 20.3 20.3C21.4 19.2 22 17.7 22 16.2V7.8C22 4.6 19.4 2 16.2 2ZM15.5 15.5C14.6 16.5 13.3 17 12 17C10.7 17 9.4 16.5 8.5 15.5C7.5 14.6 7 13.3 7 12C7 10.7 7.5 9.4 8.5 8.5C9.4 7.5 10.7 7 12 7C13.3 7 14.6 7.5 15.5 8.5C16.5 9.4 17 10.7 17 12C17 13.3 16.5 14.6 15.5 15.5ZM18.1 7.6C17.9 7.9 17.6 8 17.3 8C17 8 16.6 7.9 16.4 7.6C16.1 7.4 16 7.1 16 6.8C16 6.5 16.1 6.1 16.4 5.9C16.6 5.7 16.9 5.5 17.3 5.5C17.7 5.5 18 5.6 18.2 5.9C18.4 6.1 18.6 6.4 18.6 6.8C18.6 7.2 18.4 7.4 18.1 7.6Z" fill="white"/>
<path d="M15 12C15 12.8 14.7 13.6 14.1 14.1C13.5 14.6 12.8 15 12 15C11.2 15 10.4 14.7 9.9 14.1C9.4 13.5 9 12.8 9 12C9 11.2 9.3 10.4 9.9 9.9C10.5 9.4 11.2 9 12 9C12.8 9 13.6 9.3 14.1 9.9C14.6 10.5 15 11.2 15 12Z" fill="white"/>
</svg>
