<svg width="88" height="43" viewBox="0 0 88 43" fill="none" xmlns="http://www.w3.org/2000/svg">
<path d="M77.9615 0.0657834C77.3748 1.99541 76.4622 3.35492 75.2237 4.16624C74.2242 4.82407 72.8119 5.26262 70.9432 5.4819C72.1817 7.69658 72.8988 10.1963 72.9422 12.8276H78.5699V20.7654C80.7862 17.9587 84.1758 16.1387 88 16.1387V0.0657834H77.9615Z" fill="white"/>
<path d="M78.4829 28.3304V28.2427V29.7996C78.4829 31.7731 76.9402 33.4176 74.8978 33.4176C72.9422 33.4176 71.3126 31.795 71.3126 29.7996H71.2909C71.2909 28.5497 71.1605 27.3656 70.8128 26.2473C70.2479 24.23 69.2049 22.41 67.8143 20.897C69.1397 19.0551 70.0089 16.8623 70.2696 14.4941H70.3783C70.4217 14.0556 70.4434 13.5951 70.4434 13.1346C70.4434 7.10454 66.4237 2.03927 60.9916 0.482406C59.8617 0.131565 58.6884 0 57.4499 0H36.8731C36.8731 5.24069 41.1318 9.5385 46.3249 9.5385H57.4499C59.4054 9.5385 60.9916 11.0954 60.9916 13.1127C60.9916 15.0862 59.4054 16.6869 57.4499 16.6869H39.7412C39.7195 16.8185 39.6978 16.95 39.6543 17.0597C42.6746 19.2963 44.7822 22.5416 45.6514 26.1815H58.2321C58.2973 26.1815 58.3625 26.1596 58.4276 26.1596V26.2254C60.2963 26.2912 61.7304 27.7603 61.8173 29.5803V30.5451C62.2084 36.9918 67.2276 42.1448 73.5071 42.8027C73.5071 42.8027 74.398 42.8246 74.8543 42.8246C78.6568 42.8246 82.0681 41.2458 84.4583 38.7022C86.5876 36.948 87.9565 34.2947 87.9565 31.3126V18.7042C82.7634 18.7042 78.4829 23.0459 78.4829 28.3304Z" fill="white"/>
<path d="M36.5906 18.2657C37.2425 16.7088 37.5901 14.9765 37.5901 13.2004C37.5901 7.17032 33.5704 2.10505 28.1383 0.54819C27.0084 0.197348 25.8351 0.0657834 24.5965 0.0657834H0C0 5.30648 4.25877 9.60428 9.45185 9.60428H24.5748C26.5304 9.60428 28.1165 11.1611 28.1165 13.1785C28.1165 15.152 26.5304 16.7527 24.5748 16.7527H0V32.3213C0 37.562 3.86765 43 11.2119 43H31.3106V42.9342C38.1116 42.5176 43.4785 36.7945 43.4785 29.8654C43.5002 24.822 40.6538 20.4584 36.5906 18.2657ZM30.4849 33.4834H13.124C11.1032 33.4834 9.47358 31.8169 9.47358 29.7996V26.335H30.5067C32.4622 26.335 34.0484 27.8919 34.0484 29.9092C34.0484 31.8608 32.4405 33.4834 30.4849 33.4834Z" fill="white"/>
</svg>
